<svg width="50" height="51" viewBox="0 0 50 51" fill="none" xmlns="http://www.w3.org/2000/svg">
<path d="M40.1041 46.988L35.9374 42.8213L38.1249 40.6338L42.2916 44.8005C42.9166 45.4255 42.9166 46.363 42.2916 46.988C41.7707 47.5088 40.7291 47.5088 40.1041 46.988ZM9.89575 46.988L14.0624 42.8213L11.8749 40.6338L7.70825 44.8005C7.08325 45.4255 7.08325 46.363 7.70825 46.988C8.22909 47.5088 9.27075 47.5088 9.89575 46.988Z" fill="#37474F"/>
<path d="M25.0001 46.363C36.506 46.363 45.8334 37.0356 45.8334 25.5296C45.8334 14.0237 36.506 4.69629 25.0001 4.69629C13.4941 4.69629 4.16675 14.0237 4.16675 25.5296C4.16675 37.0356 13.4941 46.363 25.0001 46.363Z" fill="#FF0000"/>
<path d="M24.9999 42.1961C34.2047 42.1961 41.6666 34.7342 41.6666 25.5295C41.6666 16.3247 34.2047 8.86279 24.9999 8.86279C15.7952 8.86279 8.33325 16.3247 8.33325 25.5295C8.33325 34.7342 15.7952 42.1961 24.9999 42.1961Z" fill="#EEEEEE"/>
<path d="M15.7251 35.4045L15.1355 34.8149L24.7095 25.241L25.299 25.8295L15.7251 35.4045Z" fill="#E53935"/>
<path d="M23.9583 11.9878H26.0416V25.5295H23.9583V11.9878Z" fill="black"/>
<path d="M32.5886 31.4191L30.8958 33.1129L24.1208 26.3379L25.8146 24.6431L32.5886 31.4191Z" fill="black"/>
<path d="M25.0001 27.613C26.1507 27.613 27.0834 26.6802 27.0834 25.5296C27.0834 24.379 26.1507 23.4463 25.0001 23.4463C23.8495 23.4463 22.9167 24.379 22.9167 25.5296C22.9167 26.6802 23.8495 27.613 25.0001 27.613Z" fill="black"/>
<path d="M24.9999 26.5711C25.5752 26.5711 26.0416 26.1048 26.0416 25.5295C26.0416 24.9542 25.5752 24.4878 24.9999 24.4878C24.4246 24.4878 23.9583 24.9542 23.9583 25.5295C23.9583 26.1048 24.4246 26.5711 24.9999 26.5711Z" fill="#FF0000"/>
<path d="M22.9168 1.57129H27.0834V4.69629H22.9168V1.57129ZM46.2501 17.4046C48.8543 13.7588 48.4376 8.65462 45.2084 5.42546C41.9793 2.19629 36.8751 1.77962 33.2293 4.38379L46.2501 17.4046ZM3.75011 17.4046C1.14595 13.7588 1.56261 8.65462 4.79178 5.42546C8.02095 2.19629 13.1251 1.77962 16.7709 4.38379L3.75011 17.4046Z" fill="#37474F"/>
</svg>
